# xmcd
#
# Track frame offsets: 
#        150
#        16769
#        42303
#        55457
#        80756
#        100496
#        121908
#        135087
#        162117
#        197006
#        211517
#        225407
#
# Disc length: 3176 seconds
#
# Revision: 0
# Processed by: cddbd v1.5.2PL0 Copyright (c) Steve Scherf et al.
# Submitted via: ExactAudioCopy v1.3
#
DISCID=8f0c660c
DTITLE=Murali Coryell - Made in Texas
DYEAR=2019
DGENRE=Texas Blues
TTITLE0=Herman Wright
TTITLE1=Fear
TTITLE2=Big Love
TTITLE3=Ain't It A Shame
TTITLE4=Call The Fire Departments
TTITLE5=C and J Cafe
TTITLE6=I Got It Bad
TTITLE7=Woman Don't Lie
TTITLE8=I Pity The Fool
TTITLE9=Satan's Woman
TTITLE10=All I Ever Needed
TTITLE11=Wichita Lineman
EXTD=
EXTT0=
EXTT1=
EXTT2=
EXTT3=
EXTT4=
EXTT5=
EXTT6=
EXTT7=
EXTT8=
EXTT9=
EXTT10=
EXTT11=
PLAYORDER=
